<?xml version="1.0" encoding="UTF-8" standalone="no"?>
<!-- Created with Inkscape (http://www.inkscape.org/) -->

<svg
   width="512"
   height="512"
   viewBox="0 0 512 512"
   version="1.1"
   id="svg5"
   xml:space="preserve"
   inkscape:version="1.2.2 (unknown)"
   sodipodi:docname="icon.svg"
   inkscape:export-filename="icon.png"
   inkscape:export-xdpi="48"
   inkscape:export-ydpi="48"
   xmlns:inkscape="http://www.inkscape.org/namespaces/inkscape"
   xmlns:sodipodi="http://sodipodi.sourceforge.net/DTD/sodipodi-0.dtd"
   xmlns="http://www.w3.org/2000/svg"
   xmlns:svg="http://www.w3.org/2000/svg"><sodipodi:namedview
     id="namedview7"
     pagecolor="#ffffff"
     bordercolor="#000000"
     borderopacity="0.25"
     inkscape:showpageshadow="2"
     inkscape:pageopacity="0.0"
     inkscape:pagecheckerboard="0"
     inkscape:deskcolor="#d1d1d1"
     inkscape:document-units="px"
     showgrid="false"
     inkscape:zoom="0.30797815"
     inkscape:cx="133.12633"
     inkscape:cy="308.46344"
     inkscape:window-width="1920"
     inkscape:window-height="1043"
     inkscape:window-x="0"
     inkscape:window-y="0"
     inkscape:window-maximized="1"
     inkscape:current-layer="layer1"
     inkscape:lockguides="false" /><defs
     id="defs2" /><g
     inkscape:label="Слой 1"
     inkscape:groupmode="layer"
     id="layer1"><rect
       style="fill:#c68787;fill-opacity:0.795261;stroke:#000000;stroke-width:1.88976;stroke-linecap:round;stroke-linejoin:round;stroke-dasharray:none;stroke-opacity:1;paint-order:normal"
       id="rect234"
       width="500.75513"
       height="496.49127"
       x="5.6085567"
       y="-501.68005"
       rx="20"
       ry="20"
       transform="scale(1,-1)" /><g
       id="g855"
       style="fill:#970000;fill-opacity:1"
       transform="translate(-0.01388645,-0.7648592)"><path
         style="fill:#970000;fill-opacity:1"
         d="m 471.87824,96.006426 c -0.55941,-2.6096 -2.00267,-22.14985 -3.63766,-49.25 -1.08553,-17.992601 -1.81952,-24.021791 -1.99857,-16.416671 -0.51268,21.775691 -4.78429,52.092361 -5.72993,40.666671 -0.3184,-3.8472 -1.52875,-4.91462 -2.55126,-2.25 -0.93647,2.44041 -30.47987,2.20407 -31.25111,-0.25 -2.06204,-6.5614 -2.63294,-6.99266 -3.84327,-2.90321 -0.62618,2.11573 -1.85153,4.24581 -2.72299,4.73351 -1.04928,0.5872 -1.81231,3.01418 -2.25898,7.1852 -0.89325,8.34096 -4.448,12.33896 -4.54671,5.11365 -0.008,-0.61647 -0.91698,-9.3523 -2.01901,-19.41296 -1.10204,-10.06067 -1.83106,-18.464761 -1.62004,-18.675781 0.5918,-0.5918 1.36638,4.779101 3.23908,22.459591 1.88621,17.808 2.80834,19.96756 3.89705,9.1266 0.55523,-5.52867 1.10226,-7.22457 2.44353,-7.57532 0.99254,-0.25956 2.11463,-2.01609 2.63611,-4.1266 1.12234,-4.54227 3.36078,-4.76002 4.81875,-0.46876 1.65948,4.88438 2.11651,5.00776 16.74917,4.52156 13.65994,-0.45388 13.65994,-0.45388 14.29531,-3.84068 0.80067,-4.26797 1.97555,-4.31769 3.23252,-0.1368 0.83983,2.79344 1.07742,1.77495 1.69125,-7.25 2.80038,-41.172731 4.76716,-46.025521 6.6181,-16.329421 3.40872,54.688651 4.08856,59.466345 5.45712,38.350771 0.52974,-8.17348 1.05961,-11.02135 2.05058,-11.02135 1.29066,0 1.68362,-1.18374 3.07433,-9.26104 1.21263,-7.04295 3.71265,-5.43544 5.07162,3.26104 0.99466,6.36511 8.54937,8.75128 12.80808,4.04546 3.5867,-3.96326 9.54114,-2.11939 9.54114,2.95454 0,5.00336 -7.67229,7.34937 -9.97343,3.04965 -0.81412,-1.5212 -2.30714,-2.01629 -6.78518,-2.25 -5.74139,-0.29965 -5.74139,-0.29965 -6.8893,-6.11423 -1.54821,-7.84223 -2.10475,-7.99384 -2.91918,-0.79523 -0.3924,3.46839 -1.43524,6.95948 -2.41704,8.09151 -1.22995,1.41815 -1.92054,4.6567 -2.39994,11.25469 -1.06757,14.69275 -2.66654,20.014724 -4.06014,13.51361 z m -116.2005,-21.26651 c -0.32007,-0.83409 -1.35289,-4.00824 -2.29517,-7.05367 -2.03164,-6.5663 -3.1123,-7.17179 -4.3367,-2.42982 -1.11381,4.3137 -2.58971,6.2092 -4.08673,5.24856 -0.62518,-0.40118 -4.96169,-0.6062 -9.63669,-0.45561 -5.68822,0.18324 -7.99759,-0.0417 -6.98123,-0.67986 0.83533,-0.52452 5.29797,-1.10204 9.91698,-1.28338 8.39821,-0.32971 8.39821,-0.32971 9.81456,-4.57971 2.03569,-6.10842 3.77725,-5.35879 6.38885,2.75 2.30346,7.15201 3.29422,8.36063 4.28768,5.23051 1.112,-3.5036 6.67426,-5.52565 10.26816,-3.73278 5.45138,2.71951 29.47876,1.74589 30.79213,-1.24773 1.2923,-2.9456 2.32486,-2.84725 3.11391,0.29657 0.35154,1.40061 0.79495,2.39078 0.98536,2.20036 0.29203,-0.29203 3.37744,-24.758451 3.40453,-26.996931 0.005,-0.4125 0.68407,-0.75 1.50907,-0.75 1.77109,0 1.94041,1.15959 0.39499,2.70501 -0.95994,0.95994 -3.7294,19.686831 -3.85171,26.044991 -0.0536,2.78774 -2.04267,2.96833 -2.75353,0.25 -0.56486,-2.16002 -1.79933,-2.60253 -2.78975,-1 -0.99329,1.60719 -27.46415,1.26727 -30.64725,-0.39355 -3.14764,-1.64231 -7.27523,0.44369 -9.57932,4.84122 -1.50824,2.87857 -3.05418,3.28726 -3.91814,1.03582 z"
         id="path1804" /><path
         style="fill:#970000;fill-opacity:1"
         d="m 299.87824,96.799376 c -0.55941,-2.6096 -2.00267,-22.14985 -3.63766,-49.25 -1.08553,-17.992601 -1.81952,-24.021791 -1.99857,-16.416671 -0.51268,21.775691 -4.78429,52.092361 -5.72993,40.666671 -0.3184,-3.8472 -1.52875,-4.91462 -2.55126,-2.25 -0.93647,2.44041 -30.47987,2.20407 -31.25111,-0.25 -2.06204,-6.5614 -2.63294,-6.99266 -3.84327,-2.90321 -0.62618,2.11573 -1.85153,4.24581 -2.72299,4.73351 -1.04928,0.5872 -1.81231,3.01418 -2.25898,7.1852 -0.89325,8.34096 -4.448,12.33896 -4.54671,5.11365 -0.008,-0.61647 -0.91698,-9.3523 -2.01901,-19.41296 -1.10204,-10.06067 -1.83106,-18.464761 -1.62004,-18.675781 0.5918,-0.5918 1.36638,4.779101 3.23908,22.459591 1.88621,17.808 2.80834,19.96756 3.89705,9.1266 0.55523,-5.52867 1.10226,-7.22457 2.44353,-7.57532 0.99254,-0.25956 2.11463,-2.01609 2.63611,-4.1266 1.12234,-4.54227 3.36078,-4.76002 4.81875,-0.46876 1.65948,4.88438 2.11651,5.00776 16.74917,4.52156 13.65994,-0.45388 13.65994,-0.45388 14.29531,-3.84068 0.80067,-4.26797 1.97555,-4.31769 3.23252,-0.1368 0.83983,2.79344 1.07742,1.77495 1.69125,-7.25 2.80038,-41.172731 4.76716,-46.025521 6.6181,-16.329421 3.40872,54.688651 4.08856,59.466345 5.45712,38.350771 0.52974,-8.17348 1.05961,-11.02135 2.05058,-11.02135 1.29066,0 1.68362,-1.18374 3.07433,-9.26104 1.21263,-7.04295 3.71265,-5.43544 5.07162,3.26104 0.99466,6.36511 8.54937,8.75128 12.80808,4.04546 3.5867,-3.96326 9.54114,-2.11939 9.54114,2.95454 0,5.00336 -7.67229,7.34937 -9.97343,3.04965 -0.81412,-1.5212 -2.30714,-2.01629 -6.78518,-2.25 -5.74139,-0.29965 -5.74139,-0.29965 -6.8893,-6.11423 -1.54821,-7.84223 -2.10475,-7.99384 -2.91918,-0.79523 -0.3924,3.46839 -1.43524,6.95948 -2.41704,8.09151 -1.22995,1.41815 -1.92054,4.6567 -2.39994,11.25469 -1.06757,14.69275 -2.66654,20.014724 -4.06014,13.51361 z m -116.2005,-21.26651 c -0.32007,-0.83409 -1.35289,-4.00824 -2.29517,-7.05367 -2.03164,-6.5663 -3.1123,-7.17179 -4.3367,-2.42982 -1.11381,4.3137 -2.58971,6.2092 -4.08673,5.24856 -0.62518,-0.40118 -4.96169,-0.6062 -9.63669,-0.45561 -5.68822,0.18324 -7.99759,-0.0417 -6.98123,-0.67986 0.83533,-0.52452 5.29797,-1.10204 9.91698,-1.28338 8.39821,-0.32971 8.39821,-0.32971 9.81456,-4.57971 2.03569,-6.10842 3.77725,-5.35879 6.38885,2.75 2.30346,7.15201 3.29422,8.36063 4.28768,5.23051 1.112,-3.5036 6.67426,-5.52565 10.26816,-3.73278 5.45138,2.71951 29.47876,1.74589 30.79213,-1.24773 1.2923,-2.9456 2.32486,-2.84725 3.11391,0.29657 0.35154,1.40061 0.79495,2.39078 0.98536,2.20036 0.29203,-0.29203 3.37744,-24.758451 3.40453,-26.996931 0.005,-0.4125 0.68407,-0.75 1.50907,-0.75 1.77109,0 1.94041,1.15959 0.39499,2.70501 -0.95994,0.95994 -3.7294,19.686831 -3.85171,26.044991 -0.0536,2.78774 -2.04267,2.96833 -2.75353,0.25 -0.56486,-2.16002 -1.79933,-2.60253 -2.78975,-1 -0.99329,1.60719 -27.46415,1.26727 -30.64725,-0.39355 -3.14764,-1.64231 -7.27523,0.44369 -9.57932,4.84122 -1.50824,2.87857 -3.05418,3.28726 -3.91814,1.03582 z"
         id="path1804-7" /><path
         style="fill:#970000;fill-opacity:1"
         d="m 127.87824,97.592326 c -0.55941,-2.6096 -2.00267,-22.14985 -3.63766,-49.25 -1.08553,-17.992601 -1.81952,-24.021791 -1.99857,-16.416671 -0.51268,21.775691 -4.78429,52.092361 -5.72993,40.666671 -0.3184,-3.8472 -1.52875,-4.91462 -2.55126,-2.25 -0.93647,2.44041 -30.47987,2.20407 -31.25111,-0.25 -2.06204,-6.5614 -2.63294,-6.99266 -3.84327,-2.90321 -0.62618,2.11573 -1.85153,4.24581 -2.72299,4.73351 -1.04928,0.5872 -1.81231,3.01418 -2.25898,7.1852 -0.89325,8.34096 -4.448,12.33896 -4.54671,5.11365 -0.008,-0.61647 -0.91698,-9.3523 -2.01901,-19.41296 -1.10204,-10.06067 -1.83106,-18.464761 -1.62004,-18.675781 0.5918,-0.5918 1.36638,4.779101 3.23908,22.459591 1.88621,17.808 2.80834,19.96756 3.89705,9.1266 0.55523,-5.52867 1.10226,-7.22457 2.44353,-7.57532 0.99254,-0.25956 2.11463,-2.01609 2.63611,-4.1266 1.12234,-4.54227 3.36078,-4.76002 4.81875,-0.46876 1.65948,4.88438 2.11651,5.00776 16.74917,4.52156 13.65994,-0.45388 13.65994,-0.45388 14.29531,-3.84068 0.80067,-4.26797 1.97555,-4.31769 3.23252,-0.1368 0.83983,2.79344 1.07742,1.77495 1.69125,-7.25 2.80038,-41.172731 4.76716,-46.025521 6.6181,-16.329421 3.40872,54.688651 4.08856,59.466345 5.45712,38.350771 0.52974,-8.17348 1.05961,-11.02135 2.05058,-11.02135 1.29066,0 1.68362,-1.18374 3.07433,-9.26104 1.21263,-7.04295 3.71265,-5.43544 5.07162,3.26104 0.99466,6.36511 8.54937,8.75128 12.80808,4.04546 3.5867,-3.96326 9.54114,-2.11939 9.54114,2.95454 0,5.00336 -7.67229,7.34937 -9.97343,3.04965 -0.81412,-1.5212 -2.30714,-2.01629 -6.78518,-2.25 -5.74139,-0.29965 -5.74139,-0.29965 -6.8893,-6.11423 -1.54821,-7.84223 -2.10475,-7.99384 -2.91918,-0.79523 -0.3924,3.46839 -1.43524,6.95948 -2.41704,8.09151 -1.22995,1.41815 -1.92054,4.6567 -2.39994,11.25469 -1.06757,14.692753 -2.66654,20.014724 -4.06014,13.51361 z M 11.67774,76.325816 c -0.32007,-0.83409 -1.35289,-4.00824 -2.29517,-7.05367 -5.9221092,-2.08303 -1.1415994,-4.46363 1.07904,-1.42982 2.30346,7.15201 3.29422,8.36063 4.28768,5.23051 1.112,-3.5036 6.67426,-5.52565 10.26816,-3.73278 5.45138,2.71951 29.47876,1.74589 30.79213,-1.24773 1.2923,-2.9456 2.32486,-2.84725 3.11391,0.29657 0.35154,1.40061 0.79495,2.39078 0.98536,2.20036 0.29203,-0.29203 3.37744,-24.758451 3.40453,-26.996931 0.005,-0.4125 0.68407,-0.75 1.50907,-0.75 1.77109,0 1.94041,1.15959 0.39499,2.70501 -0.95994,0.95994 -3.7294,19.686831 -3.85171,26.044991 -0.0536,2.78774 -2.04267,2.96833 -2.75353,0.25 -0.56486,-2.16002 -1.79933,-2.60253 -2.78975,-1 -0.99329,1.60719 -27.46415,1.26727 -30.64725,-0.39355 -3.14764,-1.64231 -7.27523,0.44369 -9.57932,4.84122 -1.50824,2.87857 -3.05418,3.28726 -3.91814,1.03582 z"
         id="path1804-5"
         sodipodi:nodetypes="ssssssssccssssssssssssssssssssssssssccsssssssscsssss" /></g><rect
       style="fill:none;fill-opacity:1;stroke:#000000;stroke-width:7.55906;stroke-linecap:round;stroke-linejoin:round;stroke-dasharray:none;stroke-opacity:1;paint-order:normal"
       id="rect234-6"
       width="495.02225"
       height="495.86118"
       x="8.5345459"
       y="-503.97656"
       rx="20"
       ry="20"
       transform="scale(1,-1)" /><text
       xml:space="preserve"
       style="font-size:64px;font-family:'Open Sans';-inkscape-font-specification:'Open Sans';text-align:center;text-anchor:middle;fill:#343434;fill-opacity:0.796078;stroke:#010101;stroke-width:1;stroke-linecap:round;stroke-linejoin:round;stroke-dasharray:none;stroke-opacity:1"
       x="296.34451"
       y="457.9967"
       id="text2941"><tspan
         sodipodi:role="line"
         id="tspan2939"
         x="296.34451"
         y="457.9967"
         style="font-size:64px;fill:#343434;fill-opacity:0.796078;stroke:#010101;stroke-width:1;stroke-dasharray:none;stroke-opacity:1">9876543210</tspan></text><text
       xml:space="preserve"
       style="font-size:64px;font-family:'Open Sans';-inkscape-font-specification:'Open Sans';text-align:center;text-anchor:middle;fill:#343434;fill-opacity:0.796078;stroke:#010101;stroke-width:1;stroke-linecap:round;stroke-linejoin:round;stroke-dasharray:none;stroke-opacity:1"
       x="320.09216"
       y="334.08508"
       id="text2941-3"><tspan
         sodipodi:role="line"
         id="tspan2939-6"
         x="320.09216"
         y="334.08508"
         style="font-size:64px;fill:#343434;fill-opacity:0.796078;stroke:#010101;stroke-width:1;stroke-dasharray:none;stroke-opacity:1">10010100<tspan
   style="font-size:65%;baseline-shift:sub"
   id="tspan3160">2</tspan></tspan></text><text
       xml:space="preserve"
       style="font-size:64px;font-family:'Open Sans';-inkscape-font-specification:'Open Sans';text-align:center;text-anchor:middle;fill:#343434;fill-opacity:0.796078;stroke:#010101;stroke-width:1;stroke-linecap:round;stroke-linejoin:round;stroke-dasharray:none;stroke-opacity:1"
       x="304.65387"
       y="210.17343"
       id="text2941-3-7"><tspan
         sodipodi:role="line"
         id="tspan2939-6-5"
         x="304.65387"
         y="210.17343"
         style="font-style:italic;font-variant:normal;font-weight:600;font-stretch:normal;font-size:64px;font-family:'Open Sans';-inkscape-font-specification:'Open Sans Semi-Bold Italic';fill:#343434;fill-opacity:0.796078;stroke:#010101;stroke-width:1;stroke-dasharray:none;stroke-opacity:1">f <tspan
   style="font-style:italic;font-variant:normal;font-weight:600;font-stretch:normal;font-size:65%;font-family:'Open Sans';-inkscape-font-specification:'Open Sans Semi-Bold Italic';baseline-shift:super"
   id="tspan3210">I</tspan>(x) = sin(x)</tspan></text></g></svg>
